<svg id="arrows-circle-of-three-rotating-in-counterclockwise-direction" xmlns="http://www.w3.org/2000/svg" width="75.469" height="74.772" viewBox="0 0 75.469 74.772">
  <path id="Path_3403" data-name="Path 3403" d="M64.912,16.445a23.752,23.752,0,0,1,13.75-.239h0a23.728,23.728,0,0,1,8.245,4.175,4.177,4.177,0,1,0,5.154-6.575,32.236,32.236,0,0,0-42.417,2.345l1.82-6.458a4.177,4.177,0,0,0-8.041-2.266L39.131,22.658a4.177,4.177,0,0,0,2.888,5.154l15.027,4.235A4.177,4.177,0,1,0,59.311,24l-4.444-1.252A23.908,23.908,0,0,1,64.912,16.445Z" transform="translate(-35.872 -4.381)" fill="#fff"/>
  <path id="Path_3404" data-name="Path 3404" d="M7.813,357.869a32.336,32.336,0,0,0,15.925,10.052l-6.493,1.69a4.177,4.177,0,1,0,2.1,8.085l15.314-3.987a4.177,4.177,0,0,0,2.99-5.095l-3.933-15.109a4.177,4.177,0,1,0-8.085,2.1l1.163,4.468A23.9,23.9,0,0,1,8.573,333.621,4.177,4.177,0,0,0,.3,332.493a32.3,32.3,0,0,0,7.518,25.375Z" transform="translate(0 -303.06)" fill="#fff"/>
  <path id="Path_3405" data-name="Path 3405" d="M527.6,220.152a4.177,4.177,0,0,0-5.907.035l-10.337,10.462a4.177,4.177,0,1,0,5.943,5.872l3.068-3.1a23.853,23.853,0,0,1,.942,5.949q.032,1.057-.029,2.118-.025.424-.064.847a24.108,24.108,0,0,1-.375,2.534,23.915,23.915,0,0,1-14.185,17.265,4.177,4.177,0,1,0,3.217,7.71,32.27,32.27,0,0,0,19.157-23.317q.287-1.417.446-2.846.128-1.142.174-2.286t.011-2.285a32.179,32.179,0,0,0-.729-5.894l3.4,3.361a4.177,4.177,0,1,0,5.872-5.943Z" transform="translate(-463.974 -201.874)" fill="#fff"/>
</svg>
