<svg xmlns="http://www.w3.org/2000/svg" width="80.017" height="75.013" viewBox="0 0 80.017 75.013">
  <g id="Group_8997" data-name="Group 8997" transform="translate(17600 8695.447)">
    <path id="Path_3420" data-name="Path 3420" d="M79.332,260.433l-.023-.023a3.943,3.943,0,0,0-4.507-.725c-13.574,6.609-14.339,10.547-23.034,10.9h0c-1.525.073-3.548.068-5.074.033h-.006a2.259,2.259,0,0,1-2.137-1.479,2.358,2.358,0,0,1,2.243-3.209h0l.006,0c1.758.039,3.476.028,4.721-.028l.03,0c5.058-.3,6.979-2.01,10.027-4.19a7.028,7.028,0,0,0-8.927-5.41,22.117,22.117,0,0,1-5.648.255,31.126,31.126,0,0,0-22.6,9.081L.685,289.508a2.346,2.346,0,0,0,1.663,4H25.68a2.347,2.347,0,0,0,2.172-1.461c4.809-11.821,10.088-12.246,18.641-12.055,7.236.159,16.241.358,26.208-9.61l6.631-6.631a2.346,2.346,0,0,0,0-3.315Z" transform="translate(-17600 -8913.938)" fill="#7c9e6e"/>
    <path id="Path_3421" data-name="Path 3421" d="M141.362,124.762h51.572a2.344,2.344,0,0,0,2.344-2.344v-7.033a9.377,9.377,0,1,0-18.753,0,9.377,9.377,0,1,0-18.754,0,9.377,9.377,0,1,0-18.754,0v7.033A2.344,2.344,0,0,0,141.362,124.762Z" transform="translate(-17717.293 -8787.391)" fill="#7c9e6e"/>
    <ellipse id="Ellipse_1" data-name="Ellipse 1" cx="7.033" cy="7.033" rx="7.033" ry="7.033" transform="translate(-17576.242 -8695.447)" fill="#7c9e6e"/>
    <ellipse id="Ellipse_2" data-name="Ellipse 2" cx="7.033" cy="7.033" rx="7.033" ry="7.033" transform="translate(-17557.488 -8695.447)" fill="#7c9e6e"/>
    <ellipse id="Ellipse_3" data-name="Ellipse 3" cx="7.033" cy="7.033" rx="7.033" ry="7.033" transform="translate(-17538.736 -8695.447)" fill="#7c9e6e"/>
  </g>
</svg>
