<svg xmlns="http://www.w3.org/2000/svg" width="32.302" height="32.302" viewBox="0 0 32.302 32.302">
  <path id="line-brands" d="M19.619,44.416v5.127a.228.228,0,0,1-.231.231h-.822a.238.238,0,0,1-.187-.094l-2.351-3.173V49.55a.228.228,0,0,1-.231.231h-.822a.228.228,0,0,1-.231-.231V44.423a.228.228,0,0,1,.231-.231h.815a.218.218,0,0,1,.187.1l2.351,3.173V44.423a.228.228,0,0,1,.231-.231h.822A.228.228,0,0,1,19.619,44.416Zm-5.912-.231h-.822a.228.228,0,0,0-.231.231v5.127a.228.228,0,0,0,.231.231h.822a.228.228,0,0,0,.231-.231V44.416A.232.232,0,0,0,13.707,44.185Zm-1.983,4.3H9.481V44.416a.228.228,0,0,0-.231-.231H8.429a.228.228,0,0,0-.231.231v5.127a.212.212,0,0,0,.065.159.243.243,0,0,0,.159.065h3.3a.228.228,0,0,0,.231-.231v-.822a.231.231,0,0,0-.224-.231Zm12.222-4.3h-3.3a.232.232,0,0,0-.231.231v5.127a.232.232,0,0,0,.231.231h3.3a.228.228,0,0,0,.231-.231v-.822a.228.228,0,0,0-.231-.231H21.7v-.865h2.242a.228.228,0,0,0,.231-.231v-.829a.228.228,0,0,0-.231-.231H21.7v-.865h2.242a.228.228,0,0,0,.231-.231v-.822A.242.242,0,0,0,23.945,44.185ZM32.3,37.891V58.462a5.873,5.873,0,0,1-5.891,5.84H5.84A5.878,5.878,0,0,1,0,58.411V37.84A5.878,5.878,0,0,1,5.891,32H26.462A5.873,5.873,0,0,1,32.3,37.891Zm-4.442,8.84c0-5.264-5.278-9.546-11.76-9.546S4.34,41.467,4.34,46.731c0,4.716,4.182,8.667,9.835,9.417,1.377.3,1.219.8.909,2.653-.05.3-.238,1.161,1.017.635a38.006,38.006,0,0,0,9.244-6.828A8.518,8.518,0,0,0,27.861,46.731Z" transform="translate(0 -32)" fill="#fff"/>
</svg>
