<svg xmlns="http://www.w3.org/2000/svg" width="34.993" height="34.985" viewBox="0 0 34.993 34.985">
  <path id="instagram-brands" d="M17.426,40.348a8.97,8.97,0,1,0,8.97,8.97A8.956,8.956,0,0,0,17.426,40.348Zm0,14.8a5.832,5.832,0,1,1,5.832-5.832A5.842,5.842,0,0,1,17.426,55.149ZM28.854,39.981a2.092,2.092,0,1,1-2.092-2.092A2.087,2.087,0,0,1,28.854,39.981ZM34.8,42.1c-.133-2.8-.773-5.285-2.826-7.33s-4.528-2.685-7.33-2.826c-2.888-.164-11.546-.164-14.434,0-2.795.133-5.277.773-7.33,2.818S.188,39.294.048,42.1c-.164,2.888-.164,11.546,0,14.434.133,2.8.773,5.285,2.826,7.33S7.4,66.547,10.2,66.687c2.888.164,11.546.164,14.434,0,2.8-.133,5.285-.773,7.33-2.826s2.685-4.528,2.826-7.33C34.959,53.643,34.959,44.993,34.8,42.1ZM31.064,59.63a5.9,5.9,0,0,1-3.326,3.326c-2.3.913-7.768.7-10.313.7s-8.017.2-10.313-.7A5.9,5.9,0,0,1,3.787,59.63c-.913-2.3-.7-7.768-.7-10.313s-.2-8.017.7-10.313A5.9,5.9,0,0,1,7.113,35.68c2.3-.913,7.768-.7,10.313-.7s8.017-.2,10.313.7a5.9,5.9,0,0,1,3.326,3.326c.913,2.3.7,7.768.7,10.313S31.977,57.335,31.064,59.63Z" transform="translate(0.075 -31.825)" fill="#fff"/>
</svg>
