<svg xmlns="http://www.w3.org/2000/svg" width="22.924" height="22.919" viewBox="0 0 22.924 22.919">
  <path id="instagram-brands" d="M11.389,37.408a5.876,5.876,0,1,0,5.876,5.876A5.867,5.867,0,0,0,11.389,37.408Zm0,9.7a3.82,3.82,0,1,1,3.82-3.82A3.827,3.827,0,0,1,11.389,47.1Zm7.487-9.937A1.371,1.371,0,1,1,17.506,35.8,1.367,1.367,0,0,1,18.876,37.168Zm3.892,1.391a6.783,6.783,0,0,0-1.851-4.8,6.827,6.827,0,0,0-4.8-1.851c-1.892-.107-7.564-.107-9.456,0a6.817,6.817,0,0,0-4.8,1.846,6.8,6.8,0,0,0-1.851,4.8C-.1,40.446-.1,46.117.006,48.01a6.783,6.783,0,0,0,1.851,4.8,6.836,6.836,0,0,0,4.8,1.851c1.892.107,7.564.107,9.456,0a6.783,6.783,0,0,0,4.8-1.851,6.827,6.827,0,0,0,1.851-4.8C22.876,46.117,22.876,40.451,22.768,38.559ZM20.324,50.04a3.868,3.868,0,0,1-2.179,2.179c-1.509.6-5.088.46-6.756.46s-5.252.133-6.756-.46A3.868,3.868,0,0,1,2.455,50.04c-.6-1.509-.46-5.088-.46-6.756s-.133-5.252.46-6.756A3.868,3.868,0,0,1,4.634,34.35c1.509-.6,5.088-.46,6.756-.46s5.252-.133,6.756.46a3.868,3.868,0,0,1,2.179,2.179c.6,1.509.46,5.088.46,6.756S20.922,48.536,20.324,50.04Z" transform="translate(0.075 -31.825)" fill="#7c9e6e"/>
</svg>
