<svg id="shopping_cart_full" data-name="shopping cart full" xmlns="http://www.w3.org/2000/svg" width="16.792" height="14.759" viewBox="0 0 16.792 14.759">
  <path id="Path_152" data-name="Path 152" d="M5.444,9.839h8.888a.49.49,0,0,0,.473-.357l1.968-6.887a.491.491,0,0,0-.473-.627H4.308L3.957.385A.492.492,0,0,0,3.476,0H.492a.492.492,0,0,0,0,.984h2.59L4.858,8.978a1.475,1.475,0,0,0,.586,2.829h8.888a.492.492,0,0,0,0-.984H5.444a.492.492,0,0,1,0-.984Zm0,0" transform="translate(0 0)" fill="#59804a"/>
  <path id="Path_153" data-name="Path 153" d="M151,361.48A1.476,1.476,0,1,0,152.476,360,1.478,1.478,0,0,0,151,361.48Zm0,0" transform="translate(-146.048 -348.197)" fill="#59804a"/>
  <path id="Path_154" data-name="Path 154" d="M362,361.48A1.476,1.476,0,1,0,363.48,360,1.477,1.477,0,0,0,362,361.48Zm0,0" transform="translate(-350.131 -348.197)" fill="#59804a"/>
</svg>
