<svg xmlns="http://www.w3.org/2000/svg" width="17.325" height="12.994" viewBox="0 0 17.325 12.994">
  <path id="e-mail" d="M17,68.291a.2.2,0,0,1,.328.159v6.92A1.625,1.625,0,0,1,15.7,76.994H1.624A1.625,1.625,0,0,1,0,75.369V68.453a.2.2,0,0,1,.328-.159c.758.589,1.763,1.337,5.214,3.844.714.521,1.919,1.617,3.12,1.611,1.208.01,2.436-1.11,3.123-1.611C15.237,69.631,16.239,68.879,17,68.291ZM8.662,72.662c.785.014,1.915-.988,2.484-1.4,4.49-3.259,4.832-3.543,5.867-4.355a.81.81,0,0,0,.311-.64v-.643A1.625,1.625,0,0,0,15.7,64H1.624A1.625,1.625,0,0,0,0,65.624v.643a.815.815,0,0,0,.311.64c1.035.809,1.377,1.1,5.867,4.355C6.747,71.674,7.877,72.676,8.662,72.662Z" transform="translate(0 -64)" fill="#3d3d3d"/>
</svg>
