<svg xmlns="http://www.w3.org/2000/svg" width="78.353" height="75.236" viewBox="0 0 78.353 75.236">
  <g id="Group_8995" data-name="Group 8995" transform="translate(17369 8696.205)">
    <path id="XMLID_2538_" d="M78.353,310.028,69.1,308.684,64.962,300.3h0l-4.138,8.384-8.745,1.271,3.225-3.144L44.16,305.192l-4.984-10.1-4.984,10.1-11.144,1.619,3.225,3.144-8.743-1.27L13.391,300.3v0l-4.137,8.382L0,310.028l6.7,6.527-1.581,9.216,8.275-4.35h0l8.276,4.351-1.581-9.216,6.479-6.315,4.546,4.431-1.9,11.1,9.968-5.24,9.968,5.24-1.9-11.1,4.547-4.432,6.479,6.316-1.581,9.216,8.276-4.351h0l8.276,4.351-1.581-9.216Z" transform="translate(-17369 -8946.739)" fill="#7c9e6e"/>
    <path id="XMLID_2638_" d="M27.868,121.8V119.46a20.194,20.194,0,0,1,3-10.616,12.988,12.988,0,0,0-2.536-1.357,7.032,7.032,0,1,0-9.529,0,12.911,12.911,0,0,0-8.127,11.976V121.8H27.868Z" transform="translate(-17378.008 -8778.158)" fill="#7c9e6e"/>
    <path id="XMLID_2639_" d="M364.473,119.46V121.8h17.191V119.46a12.911,12.911,0,0,0-8.127-11.976,7.033,7.033,0,1,0-9.529,0,13,13,0,0,0-2.536,1.357,20.194,20.194,0,0,1,3,10.617Z" transform="translate(-17673.98 -8778.157)" fill="#7c9e6e"/>
    <path id="XMLID_2731_" d="M181.932,47.48h0a15.633,15.633,0,0,0-10.1-14.622,12.112,12.112,0,1,0-11.048,0,15.633,15.633,0,0,0-10.1,14.622v2.344h31.255Z" transform="translate(-17496.129 -8706.178)" fill="#7c9e6e"/>
  </g>
</svg>
