<svg xmlns="http://www.w3.org/2000/svg" width="85.215" height="74.52" viewBox="0 0 85.215 74.52">
  <g id="Group_8996" data-name="Group 8996" transform="translate(17143 8695.447)">
    <path id="Path_3422" data-name="Path 3422" d="M238.084,0H200.645A7.844,7.844,0,0,0,192.8,7.844V26.285l6.113,3.039,3.054-6.11a7.49,7.49,0,1,1,13.4,6.7L209.923,40.8a11.372,11.372,0,0,1-.39,4.3h3.594L203.647,71.17a2.5,2.5,0,1,0,4.692,1.706l10.1-27.772h1.75l10.2,27.78a2.5,2.5,0,0,0,4.687-1.721L225.507,45.1h12.576a7.844,7.844,0,0,0,7.844-7.844V7.844A7.844,7.844,0,0,0,238.084,0Zm-5.349,34.409h-11.2a2.5,2.5,0,0,1,0-4.993h11.2a2.5,2.5,0,0,1,0,4.993Zm0-9.36h-11.2a2.5,2.5,0,0,1,0-4.993h11.2a2.5,2.5,0,0,1,0,4.993Zm0-9.359h-26.74a2.5,2.5,0,0,1,0-4.993h26.74a2.5,2.5,0,0,1,0,4.993Zm0,0" transform="translate(-17303.713 -8695.447)" fill="#7c9e6e"/>
    <path id="Path_3423" data-name="Path 3423" d="M43.927,69.04a6.455,6.455,0,0,0,.067-3.963l6.2-12.39a2.5,2.5,0,1,0-4.466-2.233L40.439,61.021c-3.158-1.573-7.957-3.959-11.823-5.881-3.6-1.789-6.163-3.392-10.543-3.392H15.868a10.876,10.876,0,1,0-7.918-3.422,10.847,10.847,0,0,0,7.918,3.422A15.947,15.947,0,0,0,4.651,56.393,15.741,15.741,0,0,0,0,67.615v8.022a7.858,7.858,0,0,0,5.348,7.438V97.03a2.5,2.5,0,0,0,2.5,2.5H23.889a2.5,2.5,0,0,0,2.5-2.5V68.979l7.993,4a6.839,6.839,0,0,0,9.538-3.906l.01-.029Zm0,0" transform="translate(-17143 -8720.454)" fill="#7c9e6e"/>
  </g>
</svg>
