<svg id="Group_350" data-name="Group 350" xmlns="http://www.w3.org/2000/svg" width="17.616" height="17.616" viewBox="0 0 17.616 17.616">
  <g id="Group_349" data-name="Group 349">
    <path id="Path_166" data-name="Path 166" d="M17.274,14.008l-1.953-1.3-1.736-1.157a.769.769,0,0,0-1.033.168L11.478,13.1a.765.765,0,0,1-.977.2,12.506,12.506,0,0,1-3.493-2.692A12.606,12.606,0,0,1,4.317,7.115a.765.765,0,0,1,.2-.977L5.9,5.064a.769.769,0,0,0,.168-1.033L4.946,2.349,3.609.343A.769.769,0,0,0,2.574.11l-1.543.925A1.885,1.885,0,0,0,.175,2.143C-.247,3.681-.332,7.074,5.106,12.511s8.83,5.352,10.368,4.93a1.884,1.884,0,0,0,1.108-.856l.925-1.543a.769.769,0,0,0-.233-1.035Z" transform="translate(-0.001 0)" fill="#3d3d3d"/>
    <path id="Path_167" data-name="Path 167" d="M282.786,62.4a5.169,5.169,0,0,1,5.163,5.163.3.3,0,0,0,.607,0,5.777,5.777,0,0,0-5.77-5.77.3.3,0,1,0,0,.607Z" transform="translate(-272.763 -59.666)" fill="#3d3d3d"/>
    <path id="Path_168" data-name="Path 168" d="M282.786,115.363a3.345,3.345,0,0,1,3.341,3.341.3.3,0,1,0,.607,0,3.953,3.953,0,0,0-3.948-3.948.3.3,0,0,0,0,.607Z" transform="translate(-272.763 -110.808)" fill="#3d3d3d"/>
    <path id="Path_169" data-name="Path 169" d="M282.786,168.33a1.52,1.52,0,0,1,1.519,1.519.3.3,0,1,0,.607,0,2.128,2.128,0,0,0-2.126-2.126.3.3,0,0,0,0,.607Z" transform="translate(-272.763 -161.952)" fill="#3d3d3d"/>
  </g>
</svg>
