<svg xmlns="http://www.w3.org/2000/svg" width="21.161" height="21.161" viewBox="0 0 21.161 21.161">
  <path id="line-brands" d="M12.852,40.134v3.358a.149.149,0,0,1-.151.151h-.538a.156.156,0,0,1-.123-.061L10.5,41.5V43.5a.149.149,0,0,1-.151.151H9.81a.149.149,0,0,1-.151-.151V40.138a.149.149,0,0,1,.151-.151h.534a.142.142,0,0,1,.123.066l1.54,2.078V40.138a.149.149,0,0,1,.151-.151H12.7A.149.149,0,0,1,12.852,40.134Zm-3.873-.151H8.441a.149.149,0,0,0-.151.151v3.358a.149.149,0,0,0,.151.151h.538a.149.149,0,0,0,.151-.151V40.134A.152.152,0,0,0,8.979,39.982ZM7.68,42.8H6.211V40.134a.149.149,0,0,0-.151-.151H5.521a.149.149,0,0,0-.151.151v3.358a.139.139,0,0,0,.043.1.159.159,0,0,0,.1.043H7.675a.149.149,0,0,0,.151-.151v-.538A.151.151,0,0,0,7.68,42.8Zm8.006-2.815H13.528a.152.152,0,0,0-.151.151v3.358a.152.152,0,0,0,.151.151h2.159a.149.149,0,0,0,.151-.151v-.538a.149.149,0,0,0-.151-.151H14.217v-.567h1.469a.149.149,0,0,0,.151-.151v-.543a.149.149,0,0,0-.151-.151H14.217v-.567h1.469a.149.149,0,0,0,.151-.151v-.538A.159.159,0,0,0,15.686,39.982Zm5.474-4.124V49.335A3.847,3.847,0,0,1,17.3,53.161H3.826A3.85,3.85,0,0,1,0,49.3V35.826A3.85,3.85,0,0,1,3.859,32H17.335A3.847,3.847,0,0,1,21.161,35.859Zm-2.91,5.791c0-3.448-3.458-6.254-7.7-6.254s-7.7,2.806-7.7,6.254c0,3.089,2.74,5.678,6.443,6.169.9.194.8.524.6,1.738-.033.194-.156.76.666.416A24.9,24.9,0,0,0,16.6,45.5,5.58,5.58,0,0,0,18.251,41.65Z" transform="translate(0 -32)" fill="#7c9e6e"/>
</svg>
